HIERARCHY
ROOT Hips
{
	OFFSET 0.000000 0.000000 0.000000 
	CHANNELS 6 Xposition Yposition Zposition Zrotation Yrotation Xrotation
	JOINT LeftUpLeg
	{
		OFFSET 1.363060 -1.794630 0.839290 
		CHANNELS 3 Zrotation Yrotation Xrotation
		JOINT LeftLeg
		{
			OFFSET 2.448110 -6.726130 0.000000 
			CHANNELS 3 Zrotation Yrotation Xrotation
			JOINT LeftFoot
			{
				OFFSET 2.562200 -7.039590 0.000000 
				CHANNELS 3 Zrotation Yrotation Xrotation
				JOINT LeftToeBase
				{
					OFFSET 0.157640 -0.433110 2.322550 
					CHANNELS 3 Zrotation Yrotation Xrotation
					End Site
					{
						OFFSET 0.000000 0.000000 0.000000 
					}
				}
			}
		}
	}
	JOINT RightUpLeg
	{
		OFFSET -1.305520 -1.794630 0.839290 
		CHANNELS 3 Zrotation Yrotation Xrotation
		JOINT RightLeg
		{
			OFFSET -2.542530 -6.985550 0.000000 
			CHANNELS 3 Zrotation Yrotation Xrotation
			JOINT RightFoot
			{
				OFFSET -2.568260 -7.056230 0.000000 
				CHANNELS 3 Zrotation Yrotation Xrotation
				JOINT RightToeBase
				{
					OFFSET -0.164730 -0.452590 2.363150 
					CHANNELS 3 Zrotation Yrotation Xrotation
					End Site
					{
						OFFSET 0.000000 0.000000 0.000000 
					}
				}
			}
		}
	}
	JOINT Spine
	{
		OFFSET 0.028270 2.035590 -0.193380 
		CHANNELS 3 Zrotation Yrotation Xrotation
		JOINT Spine1
		{
			OFFSET 0.056720 2.048850 -0.042750 
			CHANNELS 3 Zrotation Yrotation Xrotation
			JOINT Neck1
			{
				OFFSET -0.054170 1.746240 0.172020 
				CHANNELS 3 Zrotation Yrotation Xrotation
				JOINT Head
				{
					OFFSET 0.104070 1.761360 -0.123970 
					CHANNELS 3 Zrotation Yrotation Xrotation
					End Site
					{
						OFFSET 0.000000 0.000000 0.000000 
					}
				}
			}
			JOINT LeftArm
			{
				OFFSET 3.362410 1.200890 -0.311210 
				CHANNELS 3 Zrotation Yrotation Xrotation
				JOINT LeftForeArm
				{
					OFFSET 4.983000 -0.000000 -0.000000 
					CHANNELS 3 Zrotation Yrotation Xrotation
					JOINT LeftHand
					{
						OFFSET 3.483560 -0.000000 -0.000000 
						CHANNELS 3 Zrotation Yrotation Xrotation
						JOINT LeftHandIndex1
						{
							OFFSET 0.715260 -0.000000 -0.000000 
							CHANNELS 3 Zrotation Yrotation Xrotation
							End Site
							{
								OFFSET 0.000000 0.000000 0.000000 
							}
						}
					}
				}
			}
			JOINT RightArm
			{
				OFFSET -3.136600 1.374050 -0.404650 
				CHANNELS 3 Zrotation Yrotation Xrotation
				JOINT RightForeArm
				{
					OFFSET -5.241900 -0.000000 -0.000000 
					CHANNELS 3 Zrotation Yrotation Xrotation
					JOINT RightHand
					{
						OFFSET -3.444170 -0.000000 -0.000000 
						CHANNELS 3 Zrotation Yrotation Xrotation
						JOINT RightHandIndex1
						{
							OFFSET -0.622530 -0.000000 -0.000000 
							CHANNELS 3 Zrotation Yrotation Xrotation
							End Site
							{
								OFFSET 0.000000 0.000000 0.000000 
							}
						}
					}
				}
			}
		}
	}
}
MOTION
Frames: 18
Frame Time: 0.041667
-3.405528 17.307742 38.094320 1.999107 54.137521 14.318965 -28.013341 -24.453211 -2.609163 -3.170482 13.659827 35.700644 5.546186 -17.226930 33.149084 0.013400 0.746600 2.051800 15.963061 28.934147 -22.919790 3.965736 -15.958715 26.458254 1.951084 -11.253506 9.724948 -1.003800 6.375400 -17.877500 0.254962 4.035231 -4.715355 -7.368795 2.121779 0.766690 3.002004 11.508872 14.954567 -2.449500 6.276300 13.731000 -76.135348 8.554651 14.384326 11.309607 -15.293996 -2.478828 -1.943587 -2.006848 -39.383694 -7.125000 0.000000 0.000000 74.524488 -2.367919 17.789869 -13.290985 16.122784 -2.885742 1.719190 1.197862 -1.303656 7.125000 0.000000 0.000000 
-3.372299 17.312994 38.166943 1.511075 54.393787 13.735104 -27.654112 -23.960942 -3.570906 -2.652381 14.365398 37.386808 5.377568 -16.231686 34.798919 0.023700 0.993600 2.731200 16.739163 28.773288 -22.339570 3.993645 -15.766964 26.371298 1.998106 -11.247100 9.445339 -0.931100 6.146800 -17.211000 0.302201 3.970225 -4.721810 -7.612854 2.085383 0.640247 2.921059 11.702870 15.000334 -2.500900 6.371700 13.790100 -76.363207 8.558300 13.916864 11.314811 -15.245324 -2.468746 -1.895999 -1.985527 -39.301610 -7.125000 0.000000 0.000000 74.371822 -2.164202 18.416983 -13.493374 16.346889 -2.964237 1.721682 1.204818 -1.863024 7.125000 0.000000 0.000000 
-3.342839 17.318361 38.238881 1.152031 54.651683 13.325357 -27.299625 -23.495410 -4.635175 -2.123036 15.066394 38.977899 5.221552 -15.141494 36.562009 0.055000 1.513200 4.162200 17.408076 28.511024 -21.853298 4.020039 -15.584727 26.263478 2.071613 -11.330105 9.240428 -0.921300 6.115300 -17.119400 0.349585 3.862909 -4.722356 -7.805972 2.034102 0.594162 2.853740 11.956374 15.033974 -2.533300 6.486700 13.880200 -76.521294 8.544445 13.905627 11.383111 -15.299474 -2.491207 -1.844455 -2.010413 -39.605872 -7.125000 0.000000 0.000000 74.159179 -1.818697 19.185364 -13.669892 16.531830 -3.022922 1.680804 1.230990 -2.378583 7.125000 0.000000 0.000000 
-3.314749 17.325098 38.310020 0.736001 54.936697 12.833977 -26.889788 -22.981224 -5.737319 -1.598624 15.738951 40.554115 5.126179 -14.622366 37.702655 0.043900 1.352900 3.720300 18.123498 28.261892 -21.319752 4.046410 -15.396661 26.154462 2.153703 -11.427360 9.000817 -0.900500 6.047900 -16.923400 0.408547 3.765881 -4.713355 -7.886186 1.995283 0.585117 2.780182 12.144805 15.030613 -2.561700 6.561100 13.918500 -76.719733 8.426404 14.072759 11.426497 -15.314550 -2.502783 -1.806729 -2.017448 -39.775846 -7.125000 0.000000 0.000000 73.847528 -1.497753 19.893759 -13.880472 16.758627 -3.102790 1.669162 1.256933 -2.928369 7.125000 0.000000 0.000000 
-3.286202 17.329323 38.378646 0.332173 55.204107 12.370050 -26.520916 -22.520888 -6.805347 -1.039115 16.401128 42.103507 5.014846 -13.898486 38.738181 0.033300 1.177500 3.237300 18.791575 27.983941 -20.841597 4.077144 -15.218135 26.042971 2.199888 -11.448308 8.803682 -0.873800 5.959600 -16.667300 0.457371 3.679365 -4.713459 -8.046980 1.953836 0.519760 2.708268 12.336617 15.037397 -2.597800 6.645700 13.968200 -76.885667 8.357056 14.155554 11.471535 -15.328459 -2.514208 -1.765175 -2.021850 -39.904187 -7.125000 0.000000 0.000000 73.610052 -1.209636 20.583056 -14.088234 16.980819 -3.182079 1.656399 1.277049 -3.407877 7.125000 0.000000 0.000000 
-3.258569 17.333776 38.445104 -0.053641 55.470367 11.927170 -26.167356 -22.079132 -7.894058 -0.480811 17.042989 43.625801 4.914362 -13.344554 39.390617 0.013800 0.759700 2.087800 19.424117 27.673069 -20.384695 4.112256 -15.035976 25.912775 2.230394 -11.441608 8.645672 -0.849200 5.877400 -16.429200 0.503565 3.595716 -4.715729 -8.206879 1.912475 0.435679 2.636594 12.513628 15.032705 -2.636000 6.724300 14.009500 -77.025902 8.295511 14.369628 11.525595 -15.355816 -2.530800 -1.725727 -2.027316 -40.038378 -7.125000 0.000000 0.000000 73.373490 -0.934215 21.268508 -14.298830 17.204632 -3.263739 1.646410 1.295575 -3.852953 7.125000 0.000000 0.000000 
-3.231735 17.338572 38.509734 -0.413472 55.736296 11.507162 -25.845148 -21.657302 -8.998174 0.071264 17.664545 45.133893 4.813812 -12.957584 39.579832 0.000100 0.077900 0.213900 20.019893 27.336260 -19.950437 4.147117 -14.858749 25.784896 2.245601 -11.403008 8.510279 -0.825200 5.795700 -16.192900 0.547585 3.515365 -4.719719 -8.360013 1.871891 0.333451 2.564059 12.671828 15.016912 -2.679700 6.796000 14.040700 -77.148747 8.233505 14.666370 11.581733 -15.386208 -2.549320 -1.687149 -2.026857 -40.126895 -7.125000 0.000000 0.000000 73.134947 -0.676120 21.941065 -14.511347 17.428800 -3.347577 1.640186 1.311490 -4.269302 7.125000 0.000000 0.000000 
-3.205471 17.343939 38.572879 -0.736414 56.003303 11.119375 -25.562832 -21.249695 -10.112038 0.609480 18.260487 46.610341 4.705218 -12.680114 39.309966 0.014200 -0.768600 -2.112400 20.573692 26.974943 -19.533353 4.181749 -14.683733 25.654912 2.247404 -11.338111 8.402196 -0.801700 5.714600 -15.958500 0.590556 3.431143 -4.723383 -8.497098 1.829676 0.227831 2.490389 12.818261 14.989322 -2.730600 6.864200 14.064000 -77.251872 8.170847 15.054829 11.643714 -15.427895 -2.572264 -1.649413 -2.021726 -40.183726 -7.125000 0.000000 0.000000 72.888688 -0.418477 22.608816 -14.719762 17.646059 -3.431032 1.638552 1.323669 -4.655263 7.125000 0.000000 0.000000 
-3.179551 17.349648 38.634769 -1.015953 56.269901 10.772259 -25.322473 -20.847218 -11.237865 1.134902 18.831216 48.044408 4.581935 -12.417861 38.634994 0.065700 -1.653400 -4.548600 21.082918 26.595257 -19.139531 4.213835 -14.516040 25.531837 2.242123 -11.260486 8.308859 -0.783200 5.649900 -15.771800 0.631620 3.348571 -4.727716 -8.616601 1.788356 0.115112 2.416699 12.948111 14.952570 -2.786600 6.926200 14.078800 -77.339777 8.105061 15.507448 11.706828 -15.473209 -2.597211 -1.612695 -2.008234 -40.173656 -7.125000 0.000000 0.000000 72.633002 -0.173543 23.263932 -14.924632 17.857805 -3.514148 1.639404 1.334309 -5.025683 7.125000 0.000000 0.000000 
-3.153745 17.355472 38.696202 -1.246479 56.538351 10.468284 -25.128676 -20.435642 -12.364279 1.647618 19.373770 49.421206 4.442719 -12.103017 37.649869 0.145200 -2.455700 -6.766700 21.552709 26.212516 -18.760508 4.240015 -14.360314 25.427763 2.236378 -11.182288 8.212466 -0.766400 5.590400 -15.600300 0.678481 3.247852 -4.725782 -8.670831 1.743830 0.047344 2.342174 13.081529 14.905441 -2.843700 6.986500 14.088300 -77.442825 7.999855 15.999835 11.769710 -15.523354 -2.624366 -1.576082 -1.985716 -40.101592 -7.125000 0.000000 0.000000 72.325916 0.106269 23.922710 -15.118704 18.054576 -3.594132 1.647648 1.341466 -5.384163 7.125000 0.000000 0.000000 
-3.127710 17.360953 38.756493 -1.421454 56.799515 10.229659 -24.978411 -20.011376 -13.514444 2.146209 19.892353 50.721670 4.286008 -11.666858 36.477218 0.231400 -3.096400 -8.547100 21.965966 25.827796 -18.426170 4.259917 -14.224088 25.349114 2.226954 -11.097190 8.113506 -0.755000 5.549500 -15.482700 0.723801 3.148364 -4.721714 -8.698679 1.701813 0.003542 2.271491 13.204650 14.851523 -2.897700 7.040700 14.089800 -77.536096 7.867715 16.527163 11.829895 -15.572190 -2.652261 -1.534982 -1.949370 -39.940288 -7.125000 0.000000 0.000000 72.004473 0.396243 24.548351 -15.302456 18.239754 -3.671602 1.660640 1.347881 -5.713523 7.125000 0.000000 0.000000 
-3.101104 17.365749 38.815642 -1.538626 57.052457 10.058150 -24.870446 -19.565684 -14.681777 2.625684 20.383049 51.927146 4.110946 -11.083556 35.222856 0.303300 -3.540800 -9.788100 22.322846 25.453575 -18.135618 4.271935 -14.110905 25.303920 2.212879 -11.001387 8.002109 -0.741900 5.502400 -15.347400 0.767389 3.053442 -4.714822 -8.695465 1.664288 -0.010177 2.205789 13.318107 14.793173 -2.944300 7.087000 14.085700 -77.617162 7.708049 17.111623 11.890372 -15.624390 -2.682935 -1.485621 -1.900403 -39.715790 -7.125000 0.000000 0.000000 71.669470 0.698772 25.123240 -15.472848 18.410301 -3.745187 1.677575 1.354449 -6.016496 7.125000 0.000000 0.000000 
-3.073813 17.369745 38.873763 -1.597296 57.297203 9.956269 -24.803051 -19.098144 -15.860790 3.077327 20.842147 53.019554 3.917932 -10.363177 33.968945 0.356200 -3.834200 -10.610700 22.622879 25.103741 -17.887694 4.275472 -14.022739 25.295906 2.194575 -10.894761 7.870402 -0.721300 5.427000 -15.130700 0.808637 2.962935 -4.704289 -8.668600 1.631187 0.013888 2.145485 13.419646 14.732513 -2.986700 7.126300 14.078800 -77.685880 7.500093 17.691735 11.941200 -15.664744 -2.712318 -1.415752 -1.827946 -39.376285 -7.125000 0.000000 0.000000 71.333371 1.019506 25.633594 -15.626524 18.562728 -3.813304 1.698420 1.360516 -6.290896 7.125000 0.000000 0.000000 
-3.045495 17.372943 38.931086 -1.592544 57.530438 9.920951 -24.780181 -18.605635 -17.031987 3.490270 21.262607 53.983571 3.711629 -9.551239 32.772951 0.397100 -4.046000 -11.206100 22.872792 24.776855 -17.671697 4.269363 -13.957799 25.326875 2.176552 -10.787444 7.717330 -0.699100 5.344700 -14.894200 0.845995 2.880805 -4.690744 -8.621940 1.603796 0.066100 2.091238 13.507717 14.670036 -3.023000 7.157600 14.066700 -77.731367 7.266147 18.313177 11.991164 -15.707488 -2.744920 -1.328788 -1.739734 -38.973470 -7.125000 0.000000 0.000000 71.003490 1.353375 26.066653 -15.757304 18.690377 -3.872973 1.722347 1.366913 -6.550748 7.125000 0.000000 0.000000 
-3.016149 17.375341 38.987380 -1.536552 57.755311 9.936272 -24.795823 -18.092408 -18.180873 3.854281 21.639704 54.809176 3.499499 -8.708467 31.648265 0.443400 -4.272700 -11.845100 23.080534 24.478418 -17.476466 4.254259 -13.913112 25.394127 2.157540 -10.675375 7.538788 -0.668900 5.230000 -14.565800 0.880947 2.804639 -4.674287 -8.551556 1.581382 0.142523 2.039589 13.586995 14.607752 -3.056000 7.183200 14.053000 -77.752874 7.022692 18.985449 12.046030 -15.763412 -2.784048 -1.229601 -1.641267 -38.544638 -7.125000 0.000000 0.000000 70.672045 1.696377 26.439480 -15.865803 18.794440 -3.924536 1.748835 1.376379 -6.825894 7.125000 0.000000 0.000000 
-2.985318 17.376939 39.042761 -1.441738 57.975718 9.984387 -24.844272 -17.568323 -19.290859 4.160494 21.969976 55.488725 3.293147 -7.899371 30.615497 0.500200 -4.534100 -12.584300 23.261824 24.189362 -17.292881 4.230972 -13.883326 25.491700 2.142911 -10.572863 7.346989 -0.642000 5.125800 -14.267800 0.913067 2.735361 -4.655776 -8.466530 1.563150 0.233050 1.994857 13.653243 14.545229 -3.080800 7.201000 14.033300 -77.756298 6.773607 19.706964 12.109046 -15.834304 -2.829782 -1.124701 -1.539865 -38.103350 -7.125000 0.000000 0.000000 70.347694 2.041562 26.733685 -15.951115 18.874190 -3.967758 1.778705 1.388420 -7.114799 7.125000 0.000000 0.000000 
-2.953231 17.377396 39.097000 -1.330009 58.198254 10.040169 -24.911745 -17.049978 -20.349771 4.403582 22.252729 56.018508 3.102558 -7.167758 29.682040 0.564300 -4.811200 -13.371000 23.433938 23.904989 -17.108743 4.201296 -13.862672 25.610417 2.137262 -10.491063 7.142616 -0.619600 5.037300 -14.015000 0.944087 2.668677 -4.636654 -8.374234 1.545891 0.322466 1.949049 13.711189 14.483076 -3.104800 7.214300 14.009400 -77.753547 6.511103 20.388308 12.167111 -15.898406 -2.874044 -1.022883 -1.435973 -37.587418 -7.125000 0.000000 0.000000 70.027888 2.376083 26.974619 -16.017941 18.935061 -4.004606 1.811682 1.404983 -7.450330 7.125000 0.000000 0.000000 
-2.919660 17.377168 39.150211 -1.224089 58.430539 10.078400 -24.983247 -16.542764 -21.345437 4.579436 22.486058 56.396764 2.938588 -6.555386 28.842210 0.629700 -5.077600 -14.130000 23.613650 23.615873 -16.911596 4.167588 -13.844220 25.739758 2.142649 -10.434823 6.927300 -0.604600 4.977200 -13.843500 0.976710 2.594979 -4.617732 -8.270495 1.525198 0.403719 1.904308 13.769580 14.422836 -3.123400 7.226000 13.983800 -77.753254 6.258386 21.066977 12.234284 -15.975885 -2.922348 -0.931643 -1.341603 -37.076003 -7.125000 0.000000 0.000000 69.712206 2.698973 27.160544 -16.070577 18.980282 -4.036656 1.846375 1.428326 -7.833868 7.125000 0.000000 0.000000 
